<svg width="800" height="250" xmlns="http://www.w3.org/2000/svg">
  <style>
    .title {
      font: bold 16px sans-serif;
      fill: #FFD700;
    }
    .stat {
      font: bold 28px sans-serif;
      fill: #FFFFFF;
    }
    .label {
      font: 14px sans-serif;
      fill: #AAAAAA;
    }
    .section {
      text-anchor: middle;
    }
    .shadow {
      fill: #00000033; /* Adds a subtle shadow */
    }
    .divider {
      stroke: #555555;
      stroke-width: 2;
      stroke-dasharray: 4; /* Dashed line style */
    }
  </style>

  <!-- Background -->
  <rect width="100%" height="100%" fill="#1E1E1E" rx="15" />

  <!-- Divider Lines -->
  <line x1="200" y1="25" x2="200" y2="225" class="divider" />
  <line x1="400" y1="25" x2="400" y2="225" class="divider" />
  <line x1="600" y1="25" x2="600" y2="225" class="divider" />

  <!-- Section 1: Total Contributions -->
  <g class="section" transform="translate(100, 125)">
    <text class="stat shadow" y="-10">1271</text>
    <text class="stat" y="-12">1271</text>
    <text class="label shadow" y="25">Total Contributions</text>
    <text class="label" y="23">Total Contributions</text>
  </g>

  <!-- Section 2: Current Streak -->
  <g class="section" transform="translate(300, 125)">
    <text class="stat shadow" y="-10">1</text>
    <text class="stat" y="-12">1</text>
    <text class="label shadow" y="25">Current Streak</text>
    <text class="label" y="23">Current Streak</text>
    <!-- Flame Icon -->
    <g transform="translate(-40, -80) scale(1.5)">
      <path
        d="M15.9,12.4C13.7,9.2,12.6,6.1,14.3,2.2c0,0-6.1,2.8-8.1,8.3c-1.8,5.1,0.6,9.9,3.8,11.9c-0.8-4.3,0.9-7.5,3.4-9.7 C14.5,10.9,16.6,13.6,15.9,12.4z"
        fill="#FF4500"
      />
      <circle cx="12" cy="20" r="3" fill="#FFA500" />
    </g>
  </g>

  <!-- Section 3: Longest Streak -->
  <g class="section" transform="translate(500, 125)">
    <text class="stat shadow" y="-10">72</text>
    <text class="stat" y="-12">72</text>
    <text class="label shadow" y="25">Longest Streak</text>
    <text class="label" y="23">Longest Streak</text>
  </g>

  <!-- Section 4: Top Languages -->
  <g class="section" transform="translate(700, 80)">
    <text class="title" x="0" y="-20">Top Languages Used</text>
    <text class="label" x="0" y="0">
      <tspan x="0" dy="1.5em">Python: 48.63%</tspan>
      <tspan x="0" dy="1.5em">JavaScript: 18.57%</tspan>
      <tspan x="0" dy="1.5em">HTML: 11.93%</tspan>
      <tspan x="0" dy="1.5em">CSS: 10.82%</tspan>
      <tspan x="0" dy="1.5em">Java: 4.73%</tspan>
    </text>
  </g>
</svg>
