
<svg xmlns="http://www.w3.org/2000/svg" style="isolation: isolate" viewBox="0 0 800 300" width="800px" height="300px" role="img" aria-labelledby="title desc">
  <title id="title">Willpatpost GitHub stats board</title>
  <desc id="desc">GitHub contribution totals, streaks, recent activity, and top languages for Willpatpost.</desc>
  <style>
    @keyframes reveal {
      from { opacity: 0.2; }
      to { opacity: 1; }
    }
    .animate { animation: reveal 320ms ease-out both; }
    .username { font: 600 16px -apple-system, BlinkMacSystemFont, "Segoe UI", sans-serif; fill: #f0f6fc; }
    .subtitle, .updated { font: 11px -apple-system, BlinkMacSystemFont, "Segoe UI", sans-serif; fill: #8b949e; }
    .section-label, .metric-label { font: 600 10px -apple-system, BlinkMacSystemFont, "Segoe UI", sans-serif; fill: #8b949e; }
    .metric-label, .section-label { text-transform: uppercase; }
    .metric-value { font: 600 31px -apple-system, BlinkMacSystemFont, "Segoe UI", sans-serif; fill: #f0f6fc; }
    .metric-note { font: 11px -apple-system, BlinkMacSystemFont, "Segoe UI", sans-serif; fill: #8b949e; }
    .language-name { font: 11px -apple-system, BlinkMacSystemFont, "Segoe UI", sans-serif; fill: #c9d1d9; }
    .language-percent { font: 10px -apple-system, BlinkMacSystemFont, "Segoe UI", sans-serif; fill: #8b949e; }
    .language-track { fill: #21262d; }
    .empty-state { font: 11px -apple-system, BlinkMacSystemFont, "Segoe UI", sans-serif; fill: #8b949e; }
    .rule { stroke: #21262d; stroke-width: 1; }
    .accent { fill: #3fb950; }
    .activity-cell { stroke: rgba(240, 246, 252, 0.06); stroke-width: 1; }
    .level-0 { fill: #161b22; }
    .level-1 { fill: #0e4429; }
    .level-2 { fill: #006d32; }
    .level-3 { fill: #26a641; }
    .level-4 { fill: #39d353; }
    @media (prefers-reduced-motion: reduce) {
      .animate { animation: none; }
    }
  </style>

  <rect x="0.5" y="0.5" width="799" height="299" fill="#0d1117" stroke="#30363d" rx="8" />
  <rect class="accent" x="24" y="22" width="4" height="24" rx="2" />
  <text class="username" x="38" y="31">Willpatpost</text>
  <text class="subtitle" x="38" y="46">GitHub activity overview</text>
  <text class="updated" x="776" y="34" text-anchor="end">Updated Jul 14, 2026, 8:22 PM ET</text>
  <line class="rule" x1="24" y1="62" x2="776" y2="62" />

  <g class="animate" style="animation-delay: 20ms">
    <text class="metric-label" x="24" y="85">Total contributions</text>
    <text class="metric-value" x="24" y="120">1,877</text>
    <text class="metric-note" x="24" y="141">Since Sep 27, 2024</text>
  </g>
  <g class="animate" style="animation-delay: 55ms">
    <text class="metric-label" x="286" y="85">Current streak</text>
    <text class="metric-value" x="286" y="120">0 <tspan font-size="15" fill="#8b949e">days</tspan></text>
    <text class="metric-note" x="286" y="141">No active streak</text>
  </g>
  <g class="animate" style="animation-delay: 90ms">
    <text class="metric-label" x="548" y="85">Longest streak</text>
    <text class="metric-value" x="548" y="120">22 <tspan font-size="15" fill="#8b949e">days</tspan></text>
    <text class="metric-note" x="548" y="141">Nov 27 - Dec 18, 2024</text>
  </g>

  <line class="rule" x1="24" y1="158" x2="776" y2="158" />
  <text class="section-label" x="24" y="181">Contribution activity - last 40 weeks</text>
  <text class="section-label" x="492" y="181">Top languages</text>
  <g class="animate" transform="translate(24 193)" style="animation-delay: 120ms">
    <rect class="activity-cell level-1" x="0" y="0" width="7" height="7" rx="1"><title>2025-10-12: 2 contributions</title></rect><rect class="activity-cell level-0" x="0" y="9" width="7" height="7" rx="1"><title>2025-10-13: 0 contributions</title></rect><rect class="activity-cell level-0" x="0" y="18" width="7" height="7" rx="1"><title>2025-10-14: 0 contributions</title></rect><rect class="activity-cell level-4" x="0" y="27" width="7" height="7" rx="1"><title>2025-10-15: 25 contributions</title></rect><rect class="activity-cell level-0" x="0" y="36" width="7" height="7" rx="1"><title>2025-10-16: 0 contributions</title></rect><rect class="activity-cell level-0" x="0" y="45" width="7" height="7" rx="1"><title>2025-10-17: 0 contributions</title></rect><rect class="activity-cell level-0" x="0" y="54" width="7" height="7" rx="1"><title>2025-10-18: 0 contributions</title></rect><rect class="activity-cell level-0" x="9" y="0" width="7" height="7" rx="1"><title>2025-10-19: 0 contributions</title></rect><rect class="activity-cell level-2" x="9" y="9" width="7" height="7" rx="1"><title>2025-10-20: 3 contributions</title></rect><rect class="activity-cell level-2" x="9" y="18" width="7" height="7" rx="1"><title>2025-10-21: 5 contributions</title></rect><rect class="activity-cell level-1" x="9" y="27" width="7" height="7" rx="1"><title>2025-10-22: 2 contributions</title></rect><rect class="activity-cell level-0" x="9" y="36" width="7" height="7" rx="1"><title>2025-10-23: 0 contributions</title></rect><rect class="activity-cell level-1" x="9" y="45" width="7" height="7" rx="1"><title>2025-10-24: 1 contribution</title></rect><rect class="activity-cell level-2" x="9" y="54" width="7" height="7" rx="1"><title>2025-10-25: 3 contributions</title></rect><rect class="activity-cell level-2" x="18" y="0" width="7" height="7" rx="1"><title>2025-10-26: 4 contributions</title></rect><rect class="activity-cell level-0" x="18" y="9" width="7" height="7" rx="1"><title>2025-10-27: 0 contributions</title></rect><rect class="activity-cell level-0" x="18" y="18" width="7" height="7" rx="1"><title>2025-10-28: 0 contributions</title></rect><rect class="activity-cell level-3" x="18" y="27" width="7" height="7" rx="1"><title>2025-10-29: 8 contributions</title></rect><rect class="activity-cell level-0" x="18" y="36" width="7" height="7" rx="1"><title>2025-10-30: 0 contributions</title></rect><rect class="activity-cell level-0" x="18" y="45" width="7" height="7" rx="1"><title>2025-10-31: 0 contributions</title></rect><rect class="activity-cell level-0" x="18" y="54" width="7" height="7" rx="1"><title>2025-11-01: 0 contributions</title></rect><rect class="activity-cell level-0" x="27" y="0" width="7" height="7" rx="1"><title>2025-11-02: 0 contributions</title></rect><rect class="activity-cell level-0" x="27" y="9" width="7" height="7" rx="1"><title>2025-11-03: 0 contributions</title></rect><rect class="activity-cell level-0" x="27" y="18" width="7" height="7" rx="1"><title>2025-11-04: 0 contributions</title></rect><rect class="activity-cell level-1" x="27" y="27" width="7" height="7" rx="1"><title>2025-11-05: 1 contribution</title></rect><rect class="activity-cell level-2" x="27" y="36" width="7" height="7" rx="1"><title>2025-11-06: 5 contributions</title></rect><rect class="activity-cell level-0" x="27" y="45" width="7" height="7" rx="1"><title>2025-11-07: 0 contributions</title></rect><rect class="activity-cell level-0" x="27" y="54" width="7" height="7" rx="1"><title>2025-11-08: 0 contributions</title></rect><rect class="activity-cell level-0" x="36" y="0" width="7" height="7" rx="1"><title>2025-11-09: 0 contributions</title></rect><rect class="activity-cell level-1" x="36" y="9" width="7" height="7" rx="1"><title>2025-11-10: 2 contributions</title></rect><rect class="activity-cell level-2" x="36" y="18" width="7" height="7" rx="1"><title>2025-11-11: 3 contributions</title></rect><rect class="activity-cell level-2" x="36" y="27" width="7" height="7" rx="1"><title>2025-11-12: 5 contributions</title></rect><rect class="activity-cell level-1" x="36" y="36" width="7" height="7" rx="1"><title>2025-11-13: 2 contributions</title></rect><rect class="activity-cell level-2" x="36" y="45" width="7" height="7" rx="1"><title>2025-11-14: 3 contributions</title></rect><rect class="activity-cell level-1" x="36" y="54" width="7" height="7" rx="1"><title>2025-11-15: 1 contribution</title></rect><rect class="activity-cell level-2" x="45" y="0" width="7" height="7" rx="1"><title>2025-11-16: 4 contributions</title></rect><rect class="activity-cell level-0" x="45" y="9" width="7" height="7" rx="1"><title>2025-11-17: 0 contributions</title></rect><rect class="activity-cell level-0" x="45" y="18" width="7" height="7" rx="1"><title>2025-11-18: 0 contributions</title></rect><rect class="activity-cell level-0" x="45" y="27" width="7" height="7" rx="1"><title>2025-11-19: 0 contributions</title></rect><rect class="activity-cell level-0" x="45" y="36" width="7" height="7" rx="1"><title>2025-11-20: 0 contributions</title></rect><rect class="activity-cell level-0" x="45" y="45" width="7" height="7" rx="1"><title>2025-11-21: 0 contributions</title></rect><rect class="activity-cell level-2" x="45" y="54" width="7" height="7" rx="1"><title>2025-11-22: 4 contributions</title></rect><rect class="activity-cell level-1" x="54" y="0" width="7" height="7" rx="1"><title>2025-11-23: 1 contribution</title></rect><rect class="activity-cell level-4" x="54" y="9" width="7" height="7" rx="1"><title>2025-11-24: 15 contributions</title></rect><rect class="activity-cell level-0" x="54" y="18" width="7" height="7" rx="1"><title>2025-11-25: 0 contributions</title></rect><rect class="activity-cell level-0" x="54" y="27" width="7" height="7" rx="1"><title>2025-11-26: 0 contributions</title></rect><rect class="activity-cell level-0" x="54" y="36" width="7" height="7" rx="1"><title>2025-11-27: 0 contributions</title></rect><rect class="activity-cell level-0" x="54" y="45" width="7" height="7" rx="1"><title>2025-11-28: 0 contributions</title></rect><rect class="activity-cell level-2" x="54" y="54" width="7" height="7" rx="1"><title>2025-11-29: 5 contributions</title></rect><rect class="activity-cell level-2" x="63" y="0" width="7" height="7" rx="1"><title>2025-11-30: 3 contributions</title></rect><rect class="activity-cell level-4" x="63" y="9" width="7" height="7" rx="1"><title>2025-12-01: 89 contributions</title></rect><rect class="activity-cell level-4" x="63" y="18" width="7" height="7" rx="1"><title>2025-12-02: 18 contributions</title></rect><rect class="activity-cell level-0" x="63" y="27" width="7" height="7" rx="1"><title>2025-12-03: 0 contributions</title></rect><rect class="activity-cell level-3" x="63" y="36" width="7" height="7" rx="1"><title>2025-12-04: 7 contributions</title></rect><rect class="activity-cell level-1" x="63" y="45" width="7" height="7" rx="1"><title>2025-12-05: 2 contributions</title></rect><rect class="activity-cell level-1" x="63" y="54" width="7" height="7" rx="1"><title>2025-12-06: 2 contributions</title></rect><rect class="activity-cell level-1" x="72" y="0" width="7" height="7" rx="1"><title>2025-12-07: 1 contribution</title></rect><rect class="activity-cell level-4" x="72" y="9" width="7" height="7" rx="1"><title>2025-12-08: 15 contributions</title></rect><rect class="activity-cell level-3" x="72" y="18" width="7" height="7" rx="1"><title>2025-12-09: 8 contributions</title></rect><rect class="activity-cell level-0" x="72" y="27" width="7" height="7" rx="1"><title>2025-12-10: 0 contributions</title></rect><rect class="activity-cell level-0" x="72" y="36" width="7" height="7" rx="1"><title>2025-12-11: 0 contributions</title></rect><rect class="activity-cell level-0" x="72" y="45" width="7" height="7" rx="1"><title>2025-12-12: 0 contributions</title></rect><rect class="activity-cell level-0" x="72" y="54" width="7" height="7" rx="1"><title>2025-12-13: 0 contributions</title></rect><rect class="activity-cell level-0" x="81" y="0" width="7" height="7" rx="1"><title>2025-12-14: 0 contributions</title></rect><rect class="activity-cell level-0" x="81" y="9" width="7" height="7" rx="1"><title>2025-12-15: 0 contributions</title></rect><rect class="activity-cell level-0" x="81" y="18" width="7" height="7" rx="1"><title>2025-12-16: 0 contributions</title></rect><rect class="activity-cell level-0" x="81" y="27" width="7" height="7" rx="1"><title>2025-12-17: 0 contributions</title></rect><rect class="activity-cell level-0" x="81" y="36" width="7" height="7" rx="1"><title>2025-12-18: 0 contributions</title></rect><rect class="activity-cell level-0" x="81" y="45" width="7" height="7" rx="1"><title>2025-12-19: 0 contributions</title></rect><rect class="activity-cell level-0" x="81" y="54" width="7" height="7" rx="1"><title>2025-12-20: 0 contributions</title></rect><rect class="activity-cell level-0" x="90" y="0" width="7" height="7" rx="1"><title>2025-12-21: 0 contributions</title></rect><rect class="activity-cell level-0" x="90" y="9" width="7" height="7" rx="1"><title>2025-12-22: 0 contributions</title></rect><rect class="activity-cell level-0" x="90" y="18" width="7" height="7" rx="1"><title>2025-12-23: 0 contributions</title></rect><rect class="activity-cell level-0" x="90" y="27" width="7" height="7" rx="1"><title>2025-12-24: 0 contributions</title></rect><rect class="activity-cell level-0" x="90" y="36" width="7" height="7" rx="1"><title>2025-12-25: 0 contributions</title></rect><rect class="activity-cell level-0" x="90" y="45" width="7" height="7" rx="1"><title>2025-12-26: 0 contributions</title></rect><rect class="activity-cell level-0" x="90" y="54" width="7" height="7" rx="1"><title>2025-12-27: 0 contributions</title></rect><rect class="activity-cell level-0" x="99" y="0" width="7" height="7" rx="1"><title>2025-12-28: 0 contributions</title></rect><rect class="activity-cell level-0" x="99" y="9" width="7" height="7" rx="1"><title>2025-12-29: 0 contributions</title></rect><rect class="activity-cell level-0" x="99" y="18" width="7" height="7" rx="1"><title>2025-12-30: 0 contributions</title></rect><rect class="activity-cell level-0" x="99" y="27" width="7" height="7" rx="1"><title>2025-12-31: 0 contributions</title></rect><rect class="activity-cell level-0" x="99" y="36" width="7" height="7" rx="1"><title>2026-01-01: 0 contributions</title></rect><rect class="activity-cell level-4" x="99" y="45" width="7" height="7" rx="1"><title>2026-01-02: 39 contributions</title></rect><rect class="activity-cell level-1" x="99" y="54" width="7" height="7" rx="1"><title>2026-01-03: 1 contribution</title></rect><rect class="activity-cell level-0" x="108" y="0" width="7" height="7" rx="1"><title>2026-01-04: 0 contributions</title></rect><rect class="activity-cell level-0" x="108" y="9" width="7" height="7" rx="1"><title>2026-01-05: 0 contributions</title></rect><rect class="activity-cell level-0" x="108" y="18" width="7" height="7" rx="1"><title>2026-01-06: 0 contributions</title></rect><rect class="activity-cell level-1" x="108" y="27" width="7" height="7" rx="1"><title>2026-01-07: 1 contribution</title></rect><rect class="activity-cell level-0" x="108" y="36" width="7" height="7" rx="1"><title>2026-01-08: 0 contributions</title></rect><rect class="activity-cell level-0" x="108" y="45" width="7" height="7" rx="1"><title>2026-01-09: 0 contributions</title></rect><rect class="activity-cell level-0" x="108" y="54" width="7" height="7" rx="1"><title>2026-01-10: 0 contributions</title></rect><rect class="activity-cell level-0" x="117" y="0" width="7" height="7" rx="1"><title>2026-01-11: 0 contributions</title></rect><rect class="activity-cell level-0" x="117" y="9" width="7" height="7" rx="1"><title>2026-01-12: 0 contributions</title></rect><rect class="activity-cell level-0" x="117" y="18" width="7" height="7" rx="1"><title>2026-01-13: 0 contributions</title></rect><rect class="activity-cell level-0" x="117" y="27" width="7" height="7" rx="1"><title>2026-01-14: 0 contributions</title></rect><rect class="activity-cell level-0" x="117" y="36" width="7" height="7" rx="1"><title>2026-01-15: 0 contributions</title></rect><rect class="activity-cell level-0" x="117" y="45" width="7" height="7" rx="1"><title>2026-01-16: 0 contributions</title></rect><rect class="activity-cell level-0" x="117" y="54" width="7" height="7" rx="1"><title>2026-01-17: 0 contributions</title></rect><rect class="activity-cell level-0" x="126" y="0" width="7" height="7" rx="1"><title>2026-01-18: 0 contributions</title></rect><rect class="activity-cell level-1" x="126" y="9" width="7" height="7" rx="1"><title>2026-01-19: 1 contribution</title></rect><rect class="activity-cell level-0" x="126" y="18" width="7" height="7" rx="1"><title>2026-01-20: 0 contributions</title></rect><rect class="activity-cell level-0" x="126" y="27" width="7" height="7" rx="1"><title>2026-01-21: 0 contributions</title></rect><rect class="activity-cell level-0" x="126" y="36" width="7" height="7" rx="1"><title>2026-01-22: 0 contributions</title></rect><rect class="activity-cell level-0" x="126" y="45" width="7" height="7" rx="1"><title>2026-01-23: 0 contributions</title></rect><rect class="activity-cell level-0" x="126" y="54" width="7" height="7" rx="1"><title>2026-01-24: 0 contributions</title></rect><rect class="activity-cell level-0" x="135" y="0" width="7" height="7" rx="1"><title>2026-01-25: 0 contributions</title></rect><rect class="activity-cell level-1" x="135" y="9" width="7" height="7" rx="1"><title>2026-01-26: 1 contribution</title></rect><rect class="activity-cell level-0" x="135" y="18" width="7" height="7" rx="1"><title>2026-01-27: 0 contributions</title></rect><rect class="activity-cell level-0" x="135" y="27" width="7" height="7" rx="1"><title>2026-01-28: 0 contributions</title></rect><rect class="activity-cell level-0" x="135" y="36" width="7" height="7" rx="1"><title>2026-01-29: 0 contributions</title></rect><rect class="activity-cell level-0" x="135" y="45" width="7" height="7" rx="1"><title>2026-01-30: 0 contributions</title></rect><rect class="activity-cell level-0" x="135" y="54" width="7" height="7" rx="1"><title>2026-01-31: 0 contributions</title></rect><rect class="activity-cell level-1" x="144" y="0" width="7" height="7" rx="1"><title>2026-02-01: 1 contribution</title></rect><rect class="activity-cell level-1" x="144" y="9" width="7" height="7" rx="1"><title>2026-02-02: 1 contribution</title></rect><rect class="activity-cell level-1" x="144" y="18" width="7" height="7" rx="1"><title>2026-02-03: 1 contribution</title></rect><rect class="activity-cell level-1" x="144" y="27" width="7" height="7" rx="1"><title>2026-02-04: 1 contribution</title></rect><rect class="activity-cell level-1" x="144" y="36" width="7" height="7" rx="1"><title>2026-02-05: 2 contributions</title></rect><rect class="activity-cell level-0" x="144" y="45" width="7" height="7" rx="1"><title>2026-02-06: 0 contributions</title></rect><rect class="activity-cell level-0" x="144" y="54" width="7" height="7" rx="1"><title>2026-02-07: 0 contributions</title></rect><rect class="activity-cell level-0" x="153" y="0" width="7" height="7" rx="1"><title>2026-02-08: 0 contributions</title></rect><rect class="activity-cell level-0" x="153" y="9" width="7" height="7" rx="1"><title>2026-02-09: 0 contributions</title></rect><rect class="activity-cell level-0" x="153" y="18" width="7" height="7" rx="1"><title>2026-02-10: 0 contributions</title></rect><rect class="activity-cell level-0" x="153" y="27" width="7" height="7" rx="1"><title>2026-02-11: 0 contributions</title></rect><rect class="activity-cell level-0" x="153" y="36" width="7" height="7" rx="1"><title>2026-02-12: 0 contributions</title></rect><rect class="activity-cell level-0" x="153" y="45" width="7" height="7" rx="1"><title>2026-02-13: 0 contributions</title></rect><rect class="activity-cell level-0" x="153" y="54" width="7" height="7" rx="1"><title>2026-02-14: 0 contributions</title></rect><rect class="activity-cell level-0" x="162" y="0" width="7" height="7" rx="1"><title>2026-02-15: 0 contributions</title></rect><rect class="activity-cell level-0" x="162" y="9" width="7" height="7" rx="1"><title>2026-02-16: 0 contributions</title></rect><rect class="activity-cell level-0" x="162" y="18" width="7" height="7" rx="1"><title>2026-02-17: 0 contributions</title></rect><rect class="activity-cell level-0" x="162" y="27" width="7" height="7" rx="1"><title>2026-02-18: 0 contributions</title></rect><rect class="activity-cell level-0" x="162" y="36" width="7" height="7" rx="1"><title>2026-02-19: 0 contributions</title></rect><rect class="activity-cell level-0" x="162" y="45" width="7" height="7" rx="1"><title>2026-02-20: 0 contributions</title></rect><rect class="activity-cell level-0" x="162" y="54" width="7" height="7" rx="1"><title>2026-02-21: 0 contributions</title></rect><rect class="activity-cell level-0" x="171" y="0" width="7" height="7" rx="1"><title>2026-02-22: 0 contributions</title></rect><rect class="activity-cell level-0" x="171" y="9" width="7" height="7" rx="1"><title>2026-02-23: 0 contributions</title></rect><rect class="activity-cell level-1" x="171" y="18" width="7" height="7" rx="1"><title>2026-02-24: 2 contributions</title></rect><rect class="activity-cell level-1" x="171" y="27" width="7" height="7" rx="1"><title>2026-02-25: 2 contributions</title></rect><rect class="activity-cell level-0" x="171" y="36" width="7" height="7" rx="1"><title>2026-02-26: 0 contributions</title></rect><rect class="activity-cell level-0" x="171" y="45" width="7" height="7" rx="1"><title>2026-02-27: 0 contributions</title></rect><rect class="activity-cell level-0" x="171" y="54" width="7" height="7" rx="1"><title>2026-02-28: 0 contributions</title></rect><rect class="activity-cell level-0" x="180" y="0" width="7" height="7" rx="1"><title>2026-03-01: 0 contributions</title></rect><rect class="activity-cell level-0" x="180" y="9" width="7" height="7" rx="1"><title>2026-03-02: 0 contributions</title></rect><rect class="activity-cell level-0" x="180" y="18" width="7" height="7" rx="1"><title>2026-03-03: 0 contributions</title></rect><rect class="activity-cell level-0" x="180" y="27" width="7" height="7" rx="1"><title>2026-03-04: 0 contributions</title></rect><rect class="activity-cell level-0" x="180" y="36" width="7" height="7" rx="1"><title>2026-03-05: 0 contributions</title></rect><rect class="activity-cell level-0" x="180" y="45" width="7" height="7" rx="1"><title>2026-03-06: 0 contributions</title></rect><rect class="activity-cell level-0" x="180" y="54" width="7" height="7" rx="1"><title>2026-03-07: 0 contributions</title></rect><rect class="activity-cell level-0" x="189" y="0" width="7" height="7" rx="1"><title>2026-03-08: 0 contributions</title></rect><rect class="activity-cell level-0" x="189" y="9" width="7" height="7" rx="1"><title>2026-03-09: 0 contributions</title></rect><rect class="activity-cell level-0" x="189" y="18" width="7" height="7" rx="1"><title>2026-03-10: 0 contributions</title></rect><rect class="activity-cell level-0" x="189" y="27" width="7" height="7" rx="1"><title>2026-03-11: 0 contributions</title></rect><rect class="activity-cell level-0" x="189" y="36" width="7" height="7" rx="1"><title>2026-03-12: 0 contributions</title></rect><rect class="activity-cell level-0" x="189" y="45" width="7" height="7" rx="1"><title>2026-03-13: 0 contributions</title></rect><rect class="activity-cell level-0" x="189" y="54" width="7" height="7" rx="1"><title>2026-03-14: 0 contributions</title></rect><rect class="activity-cell level-0" x="198" y="0" width="7" height="7" rx="1"><title>2026-03-15: 0 contributions</title></rect><rect class="activity-cell level-0" x="198" y="9" width="7" height="7" rx="1"><title>2026-03-16: 0 contributions</title></rect><rect class="activity-cell level-0" x="198" y="18" width="7" height="7" rx="1"><title>2026-03-17: 0 contributions</title></rect><rect class="activity-cell level-0" x="198" y="27" width="7" height="7" rx="1"><title>2026-03-18: 0 contributions</title></rect><rect class="activity-cell level-4" x="198" y="36" width="7" height="7" rx="1"><title>2026-03-19: 66 contributions</title></rect><rect class="activity-cell level-4" x="198" y="45" width="7" height="7" rx="1"><title>2026-03-20: 20 contributions</title></rect><rect class="activity-cell level-1" x="198" y="54" width="7" height="7" rx="1"><title>2026-03-21: 2 contributions</title></rect><rect class="activity-cell level-0" x="207" y="0" width="7" height="7" rx="1"><title>2026-03-22: 0 contributions</title></rect><rect class="activity-cell level-0" x="207" y="9" width="7" height="7" rx="1"><title>2026-03-23: 0 contributions</title></rect><rect class="activity-cell level-4" x="207" y="18" width="7" height="7" rx="1"><title>2026-03-24: 35 contributions</title></rect><rect class="activity-cell level-3" x="207" y="27" width="7" height="7" rx="1"><title>2026-03-25: 9 contributions</title></rect><rect class="activity-cell level-4" x="207" y="36" width="7" height="7" rx="1"><title>2026-03-26: 100 contributions</title></rect><rect class="activity-cell level-0" x="207" y="45" width="7" height="7" rx="1"><title>2026-03-27: 0 contributions</title></rect><rect class="activity-cell level-0" x="207" y="54" width="7" height="7" rx="1"><title>2026-03-28: 0 contributions</title></rect><rect class="activity-cell level-0" x="216" y="0" width="7" height="7" rx="1"><title>2026-03-29: 0 contributions</title></rect><rect class="activity-cell level-0" x="216" y="9" width="7" height="7" rx="1"><title>2026-03-30: 0 contributions</title></rect><rect class="activity-cell level-0" x="216" y="18" width="7" height="7" rx="1"><title>2026-03-31: 0 contributions</title></rect><rect class="activity-cell level-0" x="216" y="27" width="7" height="7" rx="1"><title>2026-04-01: 0 contributions</title></rect><rect class="activity-cell level-0" x="216" y="36" width="7" height="7" rx="1"><title>2026-04-02: 0 contributions</title></rect><rect class="activity-cell level-0" x="216" y="45" width="7" height="7" rx="1"><title>2026-04-03: 0 contributions</title></rect><rect class="activity-cell level-0" x="216" y="54" width="7" height="7" rx="1"><title>2026-04-04: 0 contributions</title></rect><rect class="activity-cell level-1" x="225" y="0" width="7" height="7" rx="1"><title>2026-04-05: 1 contribution</title></rect><rect class="activity-cell level-0" x="225" y="9" width="7" height="7" rx="1"><title>2026-04-06: 0 contributions</title></rect><rect class="activity-cell level-0" x="225" y="18" width="7" height="7" rx="1"><title>2026-04-07: 0 contributions</title></rect><rect class="activity-cell level-0" x="225" y="27" width="7" height="7" rx="1"><title>2026-04-08: 0 contributions</title></rect><rect class="activity-cell level-0" x="225" y="36" width="7" height="7" rx="1"><title>2026-04-09: 0 contributions</title></rect><rect class="activity-cell level-0" x="225" y="45" width="7" height="7" rx="1"><title>2026-04-10: 0 contributions</title></rect><rect class="activity-cell level-0" x="225" y="54" width="7" height="7" rx="1"><title>2026-04-11: 0 contributions</title></rect><rect class="activity-cell level-0" x="234" y="0" width="7" height="7" rx="1"><title>2026-04-12: 0 contributions</title></rect><rect class="activity-cell level-0" x="234" y="9" width="7" height="7" rx="1"><title>2026-04-13: 0 contributions</title></rect><rect class="activity-cell level-0" x="234" y="18" width="7" height="7" rx="1"><title>2026-04-14: 0 contributions</title></rect><rect class="activity-cell level-0" x="234" y="27" width="7" height="7" rx="1"><title>2026-04-15: 0 contributions</title></rect><rect class="activity-cell level-0" x="234" y="36" width="7" height="7" rx="1"><title>2026-04-16: 0 contributions</title></rect><rect class="activity-cell level-0" x="234" y="45" width="7" height="7" rx="1"><title>2026-04-17: 0 contributions</title></rect><rect class="activity-cell level-0" x="234" y="54" width="7" height="7" rx="1"><title>2026-04-18: 0 contributions</title></rect><rect class="activity-cell level-0" x="243" y="0" width="7" height="7" rx="1"><title>2026-04-19: 0 contributions</title></rect><rect class="activity-cell level-0" x="243" y="9" width="7" height="7" rx="1"><title>2026-04-20: 0 contributions</title></rect><rect class="activity-cell level-0" x="243" y="18" width="7" height="7" rx="1"><title>2026-04-21: 0 contributions</title></rect><rect class="activity-cell level-0" x="243" y="27" width="7" height="7" rx="1"><title>2026-04-22: 0 contributions</title></rect><rect class="activity-cell level-0" x="243" y="36" width="7" height="7" rx="1"><title>2026-04-23: 0 contributions</title></rect><rect class="activity-cell level-0" x="243" y="45" width="7" height="7" rx="1"><title>2026-04-24: 0 contributions</title></rect><rect class="activity-cell level-0" x="243" y="54" width="7" height="7" rx="1"><title>2026-04-25: 0 contributions</title></rect><rect class="activity-cell level-0" x="252" y="0" width="7" height="7" rx="1"><title>2026-04-26: 0 contributions</title></rect><rect class="activity-cell level-0" x="252" y="9" width="7" height="7" rx="1"><title>2026-04-27: 0 contributions</title></rect><rect class="activity-cell level-0" x="252" y="18" width="7" height="7" rx="1"><title>2026-04-28: 0 contributions</title></rect><rect class="activity-cell level-0" x="252" y="27" width="7" height="7" rx="1"><title>2026-04-29: 0 contributions</title></rect><rect class="activity-cell level-0" x="252" y="36" width="7" height="7" rx="1"><title>2026-04-30: 0 contributions</title></rect><rect class="activity-cell level-0" x="252" y="45" width="7" height="7" rx="1"><title>2026-05-01: 0 contributions</title></rect><rect class="activity-cell level-0" x="252" y="54" width="7" height="7" rx="1"><title>2026-05-02: 0 contributions</title></rect><rect class="activity-cell level-0" x="261" y="0" width="7" height="7" rx="1"><title>2026-05-03: 0 contributions</title></rect><rect class="activity-cell level-0" x="261" y="9" width="7" height="7" rx="1"><title>2026-05-04: 0 contributions</title></rect><rect class="activity-cell level-0" x="261" y="18" width="7" height="7" rx="1"><title>2026-05-05: 0 contributions</title></rect><rect class="activity-cell level-0" x="261" y="27" width="7" height="7" rx="1"><title>2026-05-06: 0 contributions</title></rect><rect class="activity-cell level-0" x="261" y="36" width="7" height="7" rx="1"><title>2026-05-07: 0 contributions</title></rect><rect class="activity-cell level-0" x="261" y="45" width="7" height="7" rx="1"><title>2026-05-08: 0 contributions</title></rect><rect class="activity-cell level-0" x="261" y="54" width="7" height="7" rx="1"><title>2026-05-09: 0 contributions</title></rect><rect class="activity-cell level-0" x="270" y="0" width="7" height="7" rx="1"><title>2026-05-10: 0 contributions</title></rect><rect class="activity-cell level-0" x="270" y="9" width="7" height="7" rx="1"><title>2026-05-11: 0 contributions</title></rect><rect class="activity-cell level-0" x="270" y="18" width="7" height="7" rx="1"><title>2026-05-12: 0 contributions</title></rect><rect class="activity-cell level-0" x="270" y="27" width="7" height="7" rx="1"><title>2026-05-13: 0 contributions</title></rect><rect class="activity-cell level-0" x="270" y="36" width="7" height="7" rx="1"><title>2026-05-14: 0 contributions</title></rect><rect class="activity-cell level-0" x="270" y="45" width="7" height="7" rx="1"><title>2026-05-15: 0 contributions</title></rect><rect class="activity-cell level-0" x="270" y="54" width="7" height="7" rx="1"><title>2026-05-16: 0 contributions</title></rect><rect class="activity-cell level-0" x="279" y="0" width="7" height="7" rx="1"><title>2026-05-17: 0 contributions</title></rect><rect class="activity-cell level-0" x="279" y="9" width="7" height="7" rx="1"><title>2026-05-18: 0 contributions</title></rect><rect class="activity-cell level-0" x="279" y="18" width="7" height="7" rx="1"><title>2026-05-19: 0 contributions</title></rect><rect class="activity-cell level-0" x="279" y="27" width="7" height="7" rx="1"><title>2026-05-20: 0 contributions</title></rect><rect class="activity-cell level-0" x="279" y="36" width="7" height="7" rx="1"><title>2026-05-21: 0 contributions</title></rect><rect class="activity-cell level-0" x="279" y="45" width="7" height="7" rx="1"><title>2026-05-22: 0 contributions</title></rect><rect class="activity-cell level-0" x="279" y="54" width="7" height="7" rx="1"><title>2026-05-23: 0 contributions</title></rect><rect class="activity-cell level-0" x="288" y="0" width="7" height="7" rx="1"><title>2026-05-24: 0 contributions</title></rect><rect class="activity-cell level-0" x="288" y="9" width="7" height="7" rx="1"><title>2026-05-25: 0 contributions</title></rect><rect class="activity-cell level-0" x="288" y="18" width="7" height="7" rx="1"><title>2026-05-26: 0 contributions</title></rect><rect class="activity-cell level-0" x="288" y="27" width="7" height="7" rx="1"><title>2026-05-27: 0 contributions</title></rect><rect class="activity-cell level-0" x="288" y="36" width="7" height="7" rx="1"><title>2026-05-28: 0 contributions</title></rect><rect class="activity-cell level-0" x="288" y="45" width="7" height="7" rx="1"><title>2026-05-29: 0 contributions</title></rect><rect class="activity-cell level-0" x="288" y="54" width="7" height="7" rx="1"><title>2026-05-30: 0 contributions</title></rect><rect class="activity-cell level-4" x="297" y="0" width="7" height="7" rx="1"><title>2026-05-31: 13 contributions</title></rect><rect class="activity-cell level-0" x="297" y="9" width="7" height="7" rx="1"><title>2026-06-01: 0 contributions</title></rect><rect class="activity-cell level-0" x="297" y="18" width="7" height="7" rx="1"><title>2026-06-02: 0 contributions</title></rect><rect class="activity-cell level-0" x="297" y="27" width="7" height="7" rx="1"><title>2026-06-03: 0 contributions</title></rect><rect class="activity-cell level-0" x="297" y="36" width="7" height="7" rx="1"><title>2026-06-04: 0 contributions</title></rect><rect class="activity-cell level-0" x="297" y="45" width="7" height="7" rx="1"><title>2026-06-05: 0 contributions</title></rect><rect class="activity-cell level-0" x="297" y="54" width="7" height="7" rx="1"><title>2026-06-06: 0 contributions</title></rect><rect class="activity-cell level-0" x="306" y="0" width="7" height="7" rx="1"><title>2026-06-07: 0 contributions</title></rect><rect class="activity-cell level-0" x="306" y="9" width="7" height="7" rx="1"><title>2026-06-08: 0 contributions</title></rect><rect class="activity-cell level-0" x="306" y="18" width="7" height="7" rx="1"><title>2026-06-09: 0 contributions</title></rect><rect class="activity-cell level-0" x="306" y="27" width="7" height="7" rx="1"><title>2026-06-10: 0 contributions</title></rect><rect class="activity-cell level-0" x="306" y="36" width="7" height="7" rx="1"><title>2026-06-11: 0 contributions</title></rect><rect class="activity-cell level-0" x="306" y="45" width="7" height="7" rx="1"><title>2026-06-12: 0 contributions</title></rect><rect class="activity-cell level-0" x="306" y="54" width="7" height="7" rx="1"><title>2026-06-13: 0 contributions</title></rect><rect class="activity-cell level-0" x="315" y="0" width="7" height="7" rx="1"><title>2026-06-14: 0 contributions</title></rect><rect class="activity-cell level-0" x="315" y="9" width="7" height="7" rx="1"><title>2026-06-15: 0 contributions</title></rect><rect class="activity-cell level-0" x="315" y="18" width="7" height="7" rx="1"><title>2026-06-16: 0 contributions</title></rect><rect class="activity-cell level-0" x="315" y="27" width="7" height="7" rx="1"><title>2026-06-17: 0 contributions</title></rect><rect class="activity-cell level-0" x="315" y="36" width="7" height="7" rx="1"><title>2026-06-18: 0 contributions</title></rect><rect class="activity-cell level-0" x="315" y="45" width="7" height="7" rx="1"><title>2026-06-19: 0 contributions</title></rect><rect class="activity-cell level-0" x="315" y="54" width="7" height="7" rx="1"><title>2026-06-20: 0 contributions</title></rect><rect class="activity-cell level-0" x="324" y="0" width="7" height="7" rx="1"><title>2026-06-21: 0 contributions</title></rect><rect class="activity-cell level-0" x="324" y="9" width="7" height="7" rx="1"><title>2026-06-22: 0 contributions</title></rect><rect class="activity-cell level-0" x="324" y="18" width="7" height="7" rx="1"><title>2026-06-23: 0 contributions</title></rect><rect class="activity-cell level-0" x="324" y="27" width="7" height="7" rx="1"><title>2026-06-24: 0 contributions</title></rect><rect class="activity-cell level-0" x="324" y="36" width="7" height="7" rx="1"><title>2026-06-25: 0 contributions</title></rect><rect class="activity-cell level-0" x="324" y="45" width="7" height="7" rx="1"><title>2026-06-26: 0 contributions</title></rect><rect class="activity-cell level-0" x="324" y="54" width="7" height="7" rx="1"><title>2026-06-27: 0 contributions</title></rect><rect class="activity-cell level-0" x="333" y="0" width="7" height="7" rx="1"><title>2026-06-28: 0 contributions</title></rect><rect class="activity-cell level-0" x="333" y="9" width="7" height="7" rx="1"><title>2026-06-29: 0 contributions</title></rect><rect class="activity-cell level-0" x="333" y="18" width="7" height="7" rx="1"><title>2026-06-30: 0 contributions</title></rect><rect class="activity-cell level-0" x="333" y="27" width="7" height="7" rx="1"><title>2026-07-01: 0 contributions</title></rect><rect class="activity-cell level-0" x="333" y="36" width="7" height="7" rx="1"><title>2026-07-02: 0 contributions</title></rect><rect class="activity-cell level-0" x="333" y="45" width="7" height="7" rx="1"><title>2026-07-03: 0 contributions</title></rect><rect class="activity-cell level-0" x="333" y="54" width="7" height="7" rx="1"><title>2026-07-04: 0 contributions</title></rect><rect class="activity-cell level-1" x="342" y="0" width="7" height="7" rx="1"><title>2026-07-05: 2 contributions</title></rect><rect class="activity-cell level-1" x="342" y="9" width="7" height="7" rx="1"><title>2026-07-06: 2 contributions</title></rect><rect class="activity-cell level-0" x="342" y="18" width="7" height="7" rx="1"><title>2026-07-07: 0 contributions</title></rect><rect class="activity-cell level-3" x="342" y="27" width="7" height="7" rx="1"><title>2026-07-08: 7 contributions</title></rect><rect class="activity-cell level-4" x="342" y="36" width="7" height="7" rx="1"><title>2026-07-09: 10 contributions</title></rect><rect class="activity-cell level-4" x="342" y="45" width="7" height="7" rx="1"><title>2026-07-10: 11 contributions</title></rect><rect class="activity-cell level-1" x="342" y="54" width="7" height="7" rx="1"><title>2026-07-11: 1 contribution</title></rect><rect class="activity-cell level-0" x="351" y="0" width="7" height="7" rx="1"><title>2026-07-12: 0 contributions</title></rect><rect class="activity-cell level-0" x="351" y="9" width="7" height="7" rx="1"><title>2026-07-13: 0 contributions</title></rect><rect class="activity-cell level-3" x="351" y="18" width="7" height="7" rx="1"><title>2026-07-14: 7 contributions</title></rect><rect class="activity-cell level-0" x="351" y="27" width="7" height="7" rx="1"><title>2026-07-15: 0 contributions</title></rect>
  </g>
  
    <g class="animate" style="animation-delay: 120ms">
      <text class="language-name" x="492" y="195">JavaScript</text>
      <rect class="language-track" x="572" y="187" width="174" height="7" rx="3.5" />
      <rect x="572" y="187" width="100" height="7" rx="3.5" fill="#f1e05a" />
      <text class="language-percent" x="776" y="195" text-anchor="end">57.2%</text>
    </g>
    <g class="animate" style="animation-delay: 155ms">
      <text class="language-name" x="492" y="216">Python</text>
      <rect class="language-track" x="572" y="208" width="174" height="7" rx="3.5" />
      <rect x="572" y="208" width="35" height="7" rx="3.5" fill="#3572A5" />
      <text class="language-percent" x="776" y="216" text-anchor="end">20.0%</text>
    </g>
    <g class="animate" style="animation-delay: 190ms">
      <text class="language-name" x="492" y="237">HTML</text>
      <rect class="language-track" x="572" y="229" width="174" height="7" rx="3.5" />
      <rect x="572" y="229" width="23" height="7" rx="3.5" fill="#e34c26" />
      <text class="language-percent" x="776" y="237" text-anchor="end">13.5%</text>
    </g>
    <g class="animate" style="animation-delay: 225ms">
      <text class="language-name" x="492" y="258">CSS</text>
      <rect class="language-track" x="572" y="250" width="174" height="7" rx="3.5" />
      <rect x="572" y="250" width="13" height="7" rx="3.5" fill="#663399" />
      <text class="language-percent" x="776" y="258" text-anchor="end">7.3%</text>
    </g>
</svg>
