
  <svg xmlns="http://www.w3.org/2000/svg" xmlns:xlink="http://www.w3.org/1999/xlink"
       style="isolation: isolate" viewBox="0 0 800 300" width="800px" height="300px">
    <style>
      @keyframes fadein {
        0% { opacity: 0; }
        100% { opacity: 1; }
      }

      @keyframes currstreak {
        0% { font-size: 3px; opacity: 0.2; }
        80% { font-size: 34px; opacity: 1; }
        100% { font-size: 28px; opacity: 1; }
      }

      .title {
        font: bold 16px sans-serif;
        fill: #FFD700;
      }

      .stat {
        font: bold 28px sans-serif;
        fill: #FFFFFF;
      }

      .label {
        font: 14px sans-serif;
        fill: #AAAAAA;
      }

      .divider {
        stroke: #555555;
        stroke-width: 2;
        stroke-dasharray: 4; /* Dashed line style */
      }

      .date {
        font: 12px sans-serif;
        fill: #AAAAAA;
      }

      .footer {
        font: 10px sans-serif;
        fill: #AAAAAA;
      }
    </style>

    <!-- Background -->
    <rect width="100%" height="100%" fill="#1E1E1E" rx="15" />

    <!-- Divider Lines -->
    <line x1="200" y1="25" x2="200" y2="275" class="divider" />
    <line x1="400" y1="25" x2="400" y2="275" class="divider" />
    <line x1="600" y1="25" x2="600" y2="275" class="divider" />

    <!-- Section 1: Total Contributions -->
    <g transform="translate(100, 100)">
      <text class="stat" y="15" text-anchor="middle" style="opacity: 0; animation: fadein 0.5s linear forwards 0.6s">
        2481
      </text>
      <text class="label" y="75" text-anchor="middle" style="opacity: 0; animation: fadein 0.5s linear forwards 0.7s">
        Total Contributions
      </text>
      <text class="date" y="100" text-anchor="middle" style="opacity: 0; animation: fadein 0.5s linear forwards 0.8s">
        Oct 4, 2023 - Feb 7, 2025
      </text>
    </g>

    <!-- Section 2: Current Streak -->
    <g style="isolation: isolate" transform="translate(300, 100)">
      <!-- Ring around number with a mask to hide the top -->
      <g mask="url(#ringMask)">
        <circle cx="0" cy="0" r="40" fill="none" stroke="#FFD700" stroke-width="5" 
                style="opacity: 0; animation: fadein 0.5s linear forwards 0.4s"></circle>
      </g>
      <defs>
        <mask id="ringMask">
          <rect x="-50" y="-40" width="100" height="100" fill="white" />
          <circle cx="0" cy="0" r="40" fill="black" />
          <ellipse cx="0" cy="-40" rx="20" ry="15" fill="black" />
        </mask>
      </defs>

      <!-- Main Number -->
      <text class="stat" y="10" text-anchor="middle" fill="#FFFFFF" 
            font-family="Segoe UI, Ubuntu, sans-serif" font-weight="700" 
            font-size="28px" font-style="normal" style="opacity: 0; animation: currstreak 0.6s linear forwards 0s">
        75
      </text>
      
      <!-- Label -->
      <text class="label" y="75" text-anchor="middle" style="opacity: 0; animation: fadein 0.5s linear forwards 0.9s">
        Current Streak
      </text>
      
      <!-- Date Range -->
      <text class="date" y="100" text-anchor="middle" style="opacity: 0; animation: fadein 0.5s linear forwards 1.0s">
        Nov 25, 2024 - Feb 7, 2025
      </text>

      <!-- Fire icon -->
      <g transform="translate(0, -60)" stroke-opacity="0" 
         style="opacity: 0; animation: fadein 0.5s linear forwards 0.6s">
        <path d="M -12 -0.5 L 15 -0.5 L 15 23.5 L -12 23.5 L -12 -0.5 Z" fill="none"/>
        <path d="M 1.5 0.67 C 1.5 0.67 2.24 3.32 2.24 5.47 C 2.24 7.53 0.89 9.2 -1.17 9.2 
                 C -3.23 9.2 -4.79 7.53 -4.79 5.47 L -4.76 5.11 
                 C -6.78 7.51 -8 10.62 -8 13.99 C -8 18.41 -4.42 22 0 22 
                 C 4.42 22 8 18.41 8 13.99 
                 C 8 8.6 5.41 3.79 1.5 0.67 Z 
                 M -0.29 19 C -2.07 19 -3.51 17.6 -3.51 15.86 
                 C -3.51 14.24 -2.46 13.1 -0.7 12.74 
                 C 1.07 12.38 2.9 11.53 3.92 10.16 
                 C 4.31 11.45 4.51 12.81 4.51 14.2 
                 C 4.51 16.85 2.36 19 -0.29 19 Z" 
          fill="#FF4500" stroke-opacity="0"/>
      </g>
    </g>

    <!-- Section 3: Longest Streak -->
    <g transform="translate(500, 100)">
      <text class="stat" y="15" text-anchor="middle" style="opacity: 0; animation: fadein 0.5s linear forwards 1.2s">
        75
      </text>
      <text class="label" y="75" text-anchor="middle" style="opacity: 0; animation: fadein 0.5s linear forwards 1.3s">
        Longest Streak
      </text>
      <text class="date" y="100" text-anchor="middle" style="opacity: 0; animation: fadein 0.5s linear forwards 1.4s">
        Nov 25, 2024 - Feb 7, 2025
      </text>
    </g>

    <!-- Section 4: Top Languages -->
    <g transform="translate(700, 100)">
      <text class="title" x="0" y="-10" text-anchor="middle" style="opacity: 0; animation: fadein 0.5s linear forwards 1.4s">
        Top Languages Used
      </text>
      <text class="label" text-anchor="middle" style="opacity: 0; animation: fadein 0.5s linear forwards 1.5s">
        <tspan x="0" dy="2.0em">Python: 47.47%</tspan><tspan x="0" dy="2.0em">JavaScript: 33.81%</tspan><tspan x="0" dy="2.0em">HTML: 8.10%</tspan><tspan x="0" dy="2.0em">CSS: 6.86%</tspan><tspan x="0" dy="2.0em">Java: 3.77%</tspan>
      </text>
    </g>

    <!-- Footer: Last Update Timestamp -->
    <g transform="translate(20, 280)">
      <text class="footer" x="0" y="10" text-anchor="start" style="opacity: 0; animation: fadein 0.5s linear forwards 1.6s">
        Updated last at: 2/7/2025, 5:44:55 PM EST
      </text>
    </g>
  </svg>
    